<svg id="Capa_1" data-name="Capa 1" xmlns="http://www.w3.org/2000/svg" viewBox="0 0 436.76 471.2"><defs><style>.cls-1{fill:#fff;}</style></defs><title>logout</title><path class="cls-1" d="M227.62,444.2H104.72a60.58,60.58,0,0,1-60.5-60.5V87.5A60.58,60.58,0,0,1,104.72,27h124.9a13.5,13.5,0,0,0,0-27H104.72a87.6,87.6,0,0,0-87.5,87.5V383.7a87.6,87.6,0,0,0,87.5,87.5h122.9a13.5,13.5,0,0,0,0-27Z" transform="translate(-17.22)"/><path class="cls-1" d="M450,226.1l-85.8-85.8a13.51,13.51,0,0,0-19.1,19.1l62.8,62.8H134a13.5,13.5,0,0,0,0,27h273.9L345.12,312a13.55,13.55,0,0,0,9.5,23.1,13.17,13.17,0,0,0,9.5-4l85.8-85.8A13.49,13.49,0,0,0,450,226.1Z" transform="translate(-17.22)"/></svg>